<svg viewBox="337 187.5 376 376" width="5000" height="5000" xmlns="http://www.w3.org/2000/svg" xmlns:xlink="http://www.w3.org/1999/xlink" preserveAspectRatio="none"><defs></defs><style>.ahw4rvknSTcolors-0 {fill:#2F90B0;fill-opacity:1;}.aIptOCySncolors-0 {fill:#08376B;fill-opacity:1;}.aprpZkIcM-fillColor {fill:#FFFFFF;fill-opacity:1;}.companyName {fill:#08376B;fill-opacity:1;}.icon3-str {stroke:#2F90B0;stroke-opacity:1;}.shapeStroke-str {stroke:#08376B;stroke-opacity:1;}</style><g opacity="1" transform="rotate(0 337 187.5)">
<svg width="376" height="376" x="337" y="187.5" version="1.1" preserveAspectRatio="none" viewBox="0 0 376 376">
  <rect x="0" y="0" width="376" height="376" class="aprpZkIcM-fillColor shapeStroke-str" style="stroke-width:0;" rx="50%" ry="50%" />
</svg>
</g><g opacity="1" transform="rotate(-90 375.0078 475.8187)">
<svg width="222.7609" height="72.2994" x="375.0078" y="475.8187" version="1.1" preserveAspectRatio="none" viewBox="1 34.77199935913086 100 32.45600509643555">
  <g transform="matrix(1 0 0 -1 0 102.00000381469727)" class="aIptOCySncolors-0"><path d="M99.591,34.772c0,5.864-12.735,12.143-31.695,12.143H62.62H49.768v-2.468H46.95v2.468h-2.701v-2.468h-2.818v2.468h-2.7  v-2.468h-2.818v2.468H21.438H5.519C4.58,46.157,2.91,45.649,1,45.649v5.35c1.91,0,3.58-0.507,4.519-1.266h9.43  c-1.504,1.598-2.433,3.742-2.433,6.104c0,4.92,4.002,8.923,8.922,8.923h14.474v2.468h2.818V64.76h2.7v2.468h2.818V64.76h2.701v2.468  h2.817V64.76H62.62c4.92,0,8.923-4.003,8.923-8.923c0-2.355-0.925-4.495-2.421-6.09c18.278,0.264,30.469,6.393,30.469,12.13H101  V34.772H99.591z M21.438,61.941c-3.366,0-6.104-2.738-6.104-6.104c0-3.365,2.738-6.104,6.104-6.104h14.474v12.208H21.438z   M38.73,61.941V49.733h2.7v12.208H38.73z M44.249,61.941V49.733h2.701v12.208H44.249z M62.62,61.941H49.768V49.733H62.62  c3.366,0,6.104,2.738,6.104,6.104C68.725,59.203,65.986,61.941,62.62,61.941z"></path></g>
</svg>
</g><g opacity="0.27" transform="rotate(0 470.0816 252.0578)">
<svg width="131.4164" height="227.1304" x="470.0816" y="252.0578" version="1.1" preserveAspectRatio="none" viewBox="11.113800048828123 1 27.772499084472656 48">
  <g transform="matrix(1 0 0 1 0 0)" class="ahw4rvknSTcolors-0"><g><path d="M13.0144,25.2165h9.41l-1.96,6.16c-2.05-0.27-3.8199-0.79-4.81-1.7C14.3944,28.5165,13.5644,26.9065,13.0144,25.2165z"></path><path d="M27.5644,25.2165h9.41c-0.56,1.71-1.4,3.32-2.68,4.49c-0.7,0.64-1.58,1.05-2.51,1.25c-0.63,0.13-1.41,0.26-2.29,0.37   L27.5644,25.2165z"></path><path d="M37.7844,21.4765h-25.57c-0.22-1.64-0.24-3.11-0.23-4.05c1.38,0.44,4.77,0.73,13.04,0.73c8.16,0,11.56-0.29,12.98-0.72   C38.0244,18.3765,37.9944,19.8465,37.7844,21.4765z"></path><path d="M38.0144,22.4806H11.9855c-0.4826,0-0.8717,0.3891-0.8717,0.8645c0,0.4827,0.3891,0.8718,0.8717,0.8718h11.8077   l-7.5117,23.6526c-0.1441,0.4578,0.1085,0.9453,0.5663,1.0894c0.4527,0.1458,0.9444-0.1094,1.0885-0.5655L25,26.1642   l7.0143,22.2296C32.1313,48.7634,32.472,49,32.8417,49c0.0865,0,0.1747-0.0128,0.2612-0.0407   c0.4578-0.1441,0.7104-0.6316,0.5663-1.0894l-7.4647-23.653h11.81c0.4827,0,0.8718-0.3891,0.8718-0.8718   C38.8862,22.8697,38.4971,22.4806,38.0144,22.4806z"></path><path d="M38.0217,16.343c0-0.2576-1.9034-0.4869-4.87-0.6365c0.0535-3.9841-0.2576-5.5215,0.2233-6.6384   c0.198,0.1083,1.1698,0.5609,2.2548-0.3134c0.3401-0.2741,0.602-0.6313,0.791-1.0251c0.3198-0.6663,0.783-1.8887,0.5068-2.9445   c-0.0975,0.1001,0.1995,0.7926-1.4655,1.3951c-0.6057,0.2192-2.6851,1.1048-2.1761,2.7145   c-0.2109,0.4069-0.341,0.8461-0.3573,1.3341c-0.0163-0.6506-0.1948-1.2687-0.4866-1.8383c0.812-2.564-3.0555-3.7003-3.6518-4.0052   c-1.5358-0.7852-1.3561-1.6421-1.3561-1.6421c-0.4258,1.6282,0.4531,4.3865,1.785,5.4597   c1.4672,1.1823,2.7903,0.5972,3.0933,0.4357c0.5667,1.2611,0.2974,1.8657,0.339,7.0443c-2.1442-0.098-4.775-0.1564-7.6293-0.1564   c-0.4561,0-0.9063,0.0015-1.3502,0.0044c0.0162-0.0623,0.046-0.1245,0.0623-0.1867c0.1761-0.0247,0.3353-0.1852,0.4531-0.3373   c0.7965-1.0288,1.6815-2.0515,2.8642-2.5938c0.3174-0.1456,0.6506-0.2535,0.9828-0.3611c0.7711-0.2497,1.4439-0.4023,1.8387-0.616   c0.126,0.3656,0.2722,0.7231,0.4103,0.9523c0.0716,0.1188,0.1519,0.2352,0.2606,0.3214c0.1086,0.0862,0.2499,0.1395,0.3867,0.1166   c0.193-0.0324,0.3346-0.2082,0.3951-0.3943c0.3725-1.1459-1.6439-2.3034-1.7723-2.3499c0,0,0.0001,0.0045-0.0005,0.0053   c-0.1227-0.1136-0.2397-0.2309-0.381-0.3268c-0.3998-0.2714-0.8688-0.4404-1.3495-0.4884   c-0.2712-0.0271-0.5464-0.0156-0.8137,0.038c-0.9578,0.1918-1.791,0.9158-2.1146,1.8375c-0.0522,0.1486-0.1205,0.328-0.2759,0.3532   c-0.1514,0.0246-0.2764-0.1185-0.4253-0.1553c-0.1856-0.046-0.3778,0.088-0.4632,0.2591s-0.0895,0.3698-0.0919,0.561   c-0.0122,0.9688-0.0244,1.9377-0.0366,2.9065c-0.0483,0.1437-0.1112,0.3022-0.1747,0.4614   c-0.3807,0.0029-0.7578,0.0065-1.1276,0.0115c0-0.0026-0.0001-0.0067-0.0001-0.0093c-0.0163-0.2776-0.0163-0.5715-0.0163-0.8491   c0-0.4408,0.0327-1.143,0.0815-1.8288c0.0002-0.0024,0.0004-0.0043,0.0006-0.0067c0.1486-0.0663,0.2465-0.2573,0.3098-0.4301   c0.428-1.1675,0.9354-2.3508,1.8314-3.1539c0.2405-0.2155,0.5048-0.3994,0.7683-0.5828c0.4468-0.3108,0.8935-0.6216,1.3403-0.9324   c0.0406-0.0283,0.0803-0.0592,0.119-0.0909c0.1782,0.2823,0.3727,0.5535,0.606,0.7875c0.0943,0.0945,0.1957,0.1847,0.3139,0.2394   c0.1183,0.0546,0.2566,0.0702,0.3707,0.0149c0.1611-0.0781,0.2391-0.2789,0.243-0.4695c0.0073-0.3515-0.1907-0.6874-0.4485-0.9185   c-0.317-0.284-1.2756-0.7314-1.6278-0.8388c-0.5759-0.2847-1.3495-0.4463-1.8378-0.3644c-0.2454,0.0411-0.4843,0.1198-0.705,0.2361   c-0.7911,0.4167-1.3318,1.3053-1.3726,2.2552c-0.0066,0.1531-0.0192,0.3394-0.1491,0.4014   c-0.1266,0.0604-0.2742-0.0439-0.4149-0.0421c-0.1753,0.0023-0.3088,0.1761-0.3386,0.3586s0.0191,0.3712,0.0676,0.5523   c0.2534,0.9476,0.5068,1.8954,0.7602,2.843c-0.0499,0.4988-0.1581,1.7549-0.2135,2.8338   c-0.2423,0.0037-0.4854,0.0071-0.7222,0.0116c-0.1065-0.2798-0.1883-0.4942-0.1906-0.4995v-0.0164   c-0.0016-0.0042-0.0035-0.0089-0.0051-0.0131c-0.012-0.9557-0.024-1.9114-0.0361-2.8671   c-0.0168-1.3437-0.7864-0.6332-0.9804-0.6647c-0.1554-0.0252-0.2238-0.2047-0.2759-0.3532   c-0.1822-0.5189-0.5356-0.961-0.9722-1.2949V8.4816c0-0.41,0.0964-0.7998,0.25-1.1516c0.2275,0.1202,1.1843,0.5359,2.2449-0.3187   c0.3401-0.274,0.602-0.6313,0.791-1.0251c0.3198-0.6663,0.783-1.8887,0.5069-2.9444c0,0,0.1306,0.6229-0.986,1.1938   c-0.1543,0.0789-0.3166,0.1423-0.4795,0.2012c-0.6078,0.22-2.7006,1.1113-2.1706,2.7322   c-0.1931,0.3766-0.3352,0.8247-0.3527,1.3126c-0.0327-0.6368-0.2125-1.2482-0.5042-1.8038c0.7304-2.2302-2.1487-3.4564-2.985-3.759   c-0.2241-0.0811-0.4473-0.1683-0.6595-0.2768C12.9244,1.8568,13.104,1,13.104,1c-0.3798,1.452,0.2573,3.1333,0.6971,4.0497   c0.2599,0.5416,0.6201,1.033,1.0879,1.41c1.4841,1.1959,2.8161,0.5858,3.0986,0.4326c0.2186,0.4717,0.3434,0.9813,0.3434,1.5894   v1.0599c-0.2123-0.1044-0.4364-0.1849-0.6689-0.2314c-0.2673-0.0535-0.5425-0.0651-0.8137-0.038   c-0.4807,0.048-0.9496,0.217-1.3495,0.4884c-0.1414,0.0959-0.2584,0.2133-0.381,0.3268c-0.0005-0.0008,0.0001-0.0046-0.0005-0.0053   c-0.2186,0.0792-1.29,0.9149-1.5704,1.3246c-0.2038,0.2979-0.3135,0.6821-0.2019,1.0253c0.0605,0.1861,0.2021,0.3619,0.3951,0.3943   c0.1368,0.0229,0.2781-0.0304,0.3867-0.1166c0.1086-0.0862,0.1889-0.2026,0.2605-0.3214c0.1367-0.2267,0.2811-0.5794,0.4062-0.941   c0.2177,0.0895,0.674,0.2262,1.8428,0.6047c0.3323,0.1076,0.6654,0.2156,0.9829,0.3611c0.2522,0.1156,0.4846,0.2626,0.7117,0.4174   v2.8135c-3.775,0.1428-6.3082,0.402-6.3082,0.699c0,0.3812,4.1669,0.7006,9.7923,0.7903c0.0143,0.0018,0.0286,0,0.0429,0.0024   c0,0-0.0006-0.0016-0.0006-0.0017c1.0148,0.016,2.0711,0.0254,3.1648,0.0254c2.8614,0,5.498-0.0588,7.6451-0.1572   c0,0.001,0.0001,0.0019,0.0001,0.0029c0.0427-0.0043,0.0786-0.0059,0.1193-0.0085C35.9589,16.8477,38.0217,16.6108,38.0217,16.343z    M18.8046,13.1978c0.6268,0.5256,1.1756,1.1591,1.6789,1.8091c0.1198,0.1547,0.2825,0.3168,0.462,0.337   c0.0114,0.0239,0.0438,0.1105,0.0844,0.2222c-0.7755,0.0157-1.5211,0.0356-2.2253,0.0597V13.1978z"></path></g></g>
</svg>
</g><g opacity="1" transform="rotate(0 428.3806 355.3676)">
<svg width="263.847" height="55.3902" x="428.3806" y="355.3676" version="1.1" preserveAspectRatio="none" viewBox="1 -29.48 142.72 29.96">
  <g transform="matrix(1 0 0 1 0 0)" class="companyName"><path id="id-D6z1nYkh10" d="M15.28-15.16Q15.28-13.40 14.30-12.06Q13.32-10.72 11.22-9.60Q9.12-8.48 5.56-7.32L5.56-7.32Q5.56-5.48 6.24-4.40Q6.92-3.32 8.12-3.32L8.12-3.32Q9.24-3.32 10.30-4.14Q11.36-4.96 12.16-6.48L12.16-6.48L12.88-6.40L14.12-4.84Q13.04-2.56 10.88-1.04Q8.72 0.48 6.52 0.48L6.52 0.48Q3.96 0.48 2.48-1.40Q1-3.28 1-6.48L1-6.48Q1-9.64 2.42-12.52Q3.84-15.40 6.18-17.16Q8.52-18.92 11.08-18.92L11.08-18.92Q13.04-18.92 14.16-17.92Q15.28-16.92 15.28-15.16L15.28-15.16ZM9.72-15.48Q8.36-15.48 7.24-13.86Q6.12-12.24 5.72-9.72L5.72-9.72Q8.48-10.64 9.76-11.68Q11.04-12.72 11.04-14.04L11.04-14.04Q11.04-14.72 10.70-15.10Q10.36-15.48 9.72-15.48L9.72-15.48Z M25.24-15.44Q24.20-15.44 23.30-14.38Q22.40-13.32 21.86-11.54Q21.32-9.76 21.32-7.72L21.32-7.72Q21.32-5.68 21.94-4.50Q22.56-3.32 23.68-3.32L23.68-3.32Q24.72-3.32 25.74-4.22Q26.76-5.12 27.44-6.60L27.44-6.60L28.12-6.52L29.40-4.92Q28.36-2.64 26.26-1.08Q24.16 0.48 22.08 0.48L22.08 0.48Q19.56 0.48 18.10-1.36Q16.64-3.20 16.64-6.36L16.64-6.36Q16.64-9.60 18.04-12.50Q19.44-15.40 21.74-17.16Q24.04-18.92 26.64-18.92L26.64-18.92Q27.76-18.92 28.78-18.68Q29.80-18.44 30.48-18L30.48-18L30.68-17.44L29-13.64L27.92-13.56Q26.80-15.44 25.24-15.44L25.24-15.44Z M36.44 0.48Q33.80 0.48 32.28-1.42Q30.76-3.32 30.76-6.64L30.76-6.64Q30.76-10.04 32.06-12.86Q33.36-15.68 35.62-17.30Q37.88-18.92 40.64-18.92L40.64-18.92Q43.36-18.92 44.86-17.18Q46.36-15.44 46.36-12.24L46.36-12.24Q46.36-8.68 45.08-5.78Q43.80-2.88 41.52-1.20Q39.24 0.48 36.44 0.48L36.44 0.48ZM38.04-2.64Q39.64-2.64 40.56-4.64Q41.48-6.64 41.48-10.40L41.48-10.40Q41.48-12.88 40.86-14.16Q40.24-15.44 39-15.44L39-15.44Q37.40-15.44 36.48-13.58Q35.56-11.72 35.56-8.32L35.56-8.32Q35.56-5.56 36.22-4.10Q36.88-2.64 38.04-2.64L38.04-2.64Z M49.28-0.28Q49.64-2.24 50.54-7.76Q51.44-13.28 51.44-14.28L51.44-14.28Q51.44-15.08 51.10-15.44Q50.76-15.80 49.92-15.80L49.92-15.80L48.52-15.80L48.88-18.12Q50.72-18.12 53.20-18.26Q55.68-18.40 56.44-18.44L56.44-18.44L56.92-17.80Q56.72-17.20 56.14-15.10Q55.56-13 55.20-10.92L55.20-10.92L55.44-10.92Q57.04-14.44 58.92-16.58Q60.80-18.72 62.44-18.80L62.44-18.80Q62.80-18.60 63.12-18.04Q63.44-17.48 63.48-16.92L63.48-16.92Q63.44-15.96 63.16-14.78Q62.88-13.60 62.62-12.74Q62.36-11.88 62.28-11.64L62.28-11.64L60.76-11.56Q60.80-12.96 60.04-12.96L60.04-12.96Q58.88-12.96 57.34-10.82Q55.80-8.68 54.32-4.96L54.32-4.96L53.84-1.12Q53.76-0.64 52.42-0.16Q51.08 0.32 49.80 0.32L49.80 0.32L49.28-0.28Z M63.68-2.12Q65.04-10.44 66.12-17.58Q67.20-24.72 67.20-25.36L67.20-25.36Q67.20-26.12 66.84-26.48Q66.48-26.84 65.68-26.84L65.68-26.84L64.28-26.84L64.64-29.12Q67.76-29.12 72.28-29.48L72.28-29.48L72.76-28.84Q71.72-24.28 70.70-19.02Q69.68-13.76 69.08-9.88L69.08-9.88L69.32-9.84Q71.16-13.48 72.56-15.50Q73.96-17.52 75.48-18.72L75.48-18.72Q77.84-18.72 79.22-16.98Q80.60-15.24 80.60-12.28L80.60-12.28Q80.60-9.04 79.20-6.10Q77.80-3.16 75.52-1.38Q73.24 0.40 70.68 0.40L70.68 0.40Q69 0.40 67.14-0.06Q65.28-0.52 64.12-1.20L64.12-1.20L63.68-2.12ZM74.60-14.40Q73.76-14.40 72.08-11.42Q70.40-8.44 68.72-3.96L68.72-3.96Q69.48-3.56 70.52-3.28Q71.56-3 72.20-3L72.20-3Q73.16-3 74-4.04Q74.84-5.08 75.34-6.80Q75.84-8.52 75.84-10.48L75.84-10.48Q75.84-12.08 75.48-13.24Q75.12-14.40 74.60-14.40L74.60-14.40Z M96.80-15.16Q96.80-13.40 95.82-12.06Q94.84-10.72 92.74-9.60Q90.64-8.48 87.08-7.32L87.08-7.32Q87.08-5.48 87.76-4.40Q88.44-3.32 89.64-3.32L89.64-3.32Q90.76-3.32 91.82-4.14Q92.88-4.96 93.68-6.48L93.68-6.48L94.40-6.40L95.64-4.84Q94.56-2.56 92.40-1.04Q90.24 0.48 88.04 0.48L88.04 0.48Q85.48 0.48 84.00-1.40Q82.52-3.28 82.52-6.48L82.52-6.48Q82.52-9.64 83.94-12.52Q85.36-15.40 87.70-17.16Q90.04-18.92 92.60-18.92L92.60-18.92Q94.56-18.92 95.68-17.92Q96.80-16.92 96.80-15.16L96.80-15.16ZM91.24-15.48Q89.88-15.48 88.76-13.86Q87.64-12.24 87.24-9.72L87.24-9.72Q90.00-10.64 91.28-11.68Q92.56-12.72 92.56-14.04L92.56-14.04Q92.56-14.72 92.22-15.10Q91.88-15.48 91.24-15.48L91.24-15.48Z M112.52-4.08Q112.80-4.08 113.32-4.48Q113.84-4.88 115.20-6.12L115.20-6.12L115.88-6.04L116.52-4.64Q113.60-1.60 112.16-0.56Q110.72 0.48 109.56 0.48L109.56 0.48Q108.76 0.48 108.34 0.10Q107.92-0.28 107.92-0.96L107.92-0.96Q107.92-1.76 109.32-7.80L109.32-7.80L109.00-7.84Q107.20-4.64 105.66-2.66Q104.12-0.68 102.52 0.48L102.52 0.48Q100.40 0.48 99.22-1.04Q98.04-2.56 98.04-5.28L98.04-5.28Q98.04-8.48 99.46-11.58Q100.88-14.68 103.10-16.64Q105.32-18.60 107.64-18.60L107.64-18.60L111.12-17.92L111.44-18.80L111.88-19.04L114.96-18.52L115.28-17.84Q114.40-14.48 113.62-10.72Q112.84-6.96 112.40-4.24L112.40-4.24L112.52-4.08ZM103.80-4.08Q104.36-4.08 105.44-5.54Q106.52-7 107.74-9.38Q108.96-11.76 109.96-14.36L109.96-14.36Q109.12-14.88 108.16-15.20Q107.20-15.52 106.48-15.52L106.48-15.52Q105.60-15.52 104.76-14.36Q103.92-13.20 103.40-11.34Q102.88-9.48 102.88-7.52L102.88-7.52Q102.88-6.04 103.14-5.06Q103.40-4.08 103.80-4.08L103.80-4.08Z M128.04-6.24L128.68-4.84Q126.84-2.52 125.14-1.02Q123.44 0.48 122.52 0.48L122.52 0.48Q120.80 0.48 119.82-0.38Q118.84-1.24 118.84-2.76L118.84-2.76Q118.84-3.20 118.88-3.44L118.88-3.44L120.88-15.44L120.60-15.68L118.12-15.72L118.00-15.92L118.24-17.76L121.28-18.24L121.88-22.88L126.88-24.28L127.28-23.80Q127.16-23.32 126.70-21.66Q126.24-20 125.84-18.16L125.84-18.16L130.24-18.20L130.44-18L130.04-15.76L125.76-15.80L125.28-15.56L123.32-5.32L123.28-4.92Q123.28-4.04 124.16-4.04L124.16-4.04Q124.64-4.04 125.38-4.56Q126.12-5.08 127.36-6.36L127.36-6.36L128.04-6.24Z M131.72-6.24Q131.80-4.60 132.76-3.62Q133.72-2.64 135.32-2.64L135.32-2.64Q136.32-2.64 136.96-3.18Q137.60-3.72 137.60-4.52L137.60-4.52Q137.60-5.28 136.96-5.90Q136.32-6.52 135.04-7.40L135.04-7.40Q133.76-8.28 133.04-8.90Q132.32-9.52 131.78-10.44Q131.24-11.36 131.24-12.56L131.24-12.56Q131.24-14.32 132.24-15.78Q133.24-17.24 134.96-18.08Q136.68-18.92 138.72-18.92L138.72-18.92Q140.28-18.92 141.60-18.48Q142.92-18.04 143.68-17.28L143.68-17.28Q142.84-15.08 141.80-13.28L141.80-13.28L141.04-13.28Q140.60-14.40 139.80-15.02Q139.00-15.64 138.04-15.64L138.04-15.64Q137.24-15.64 136.70-15.16Q136.16-14.68 136.16-13.96L136.16-13.96Q136.16-13 137.36-12.08L137.36-12.08Q137.72-11.80 138.08-11.54Q138.44-11.28 138.72-11.08L138.72-11.08Q140.52-9.84 141.48-8.74Q142.44-7.64 142.44-6.04L142.44-6.04Q142.44-4.28 141.38-2.78Q140.32-1.28 138.50-0.40Q136.68 0.48 134.52 0.48L134.52 0.48Q132.44 0.48 130.94-0.18Q129.44-0.84 129.08-1.92L129.08-1.92Q129.28-2.92 129.86-4.24Q130.44-5.56 130.96-6.28L130.96-6.28L131.72-6.24Z"/></g>
</svg>
</g></svg>