<svg xmlns="http://www.w3.org/2000/svg" viewBox="0 0 1600 900" role="img" aria-label="Decorbeats credibility hero artwork">
  <defs>
    <linearGradient id="sand" x1="0" x2="1" y1="0" y2="1">
      <stop offset="0" stop-color="#fff8ef"/>
      <stop offset="0.48" stop-color="#ead7bb"/>
      <stop offset="1" stop-color="#c88b55"/>
    </linearGradient>
    <radialGradient id="glow" cx="66%" cy="40%" r="48%">
      <stop offset="0" stop-color="#fff8e8" stop-opacity="0.92"/>
      <stop offset="0.38" stop-color="#d8a15f" stop-opacity="0.52"/>
      <stop offset="1" stop-color="#4a2617" stop-opacity="0"/>
    </radialGradient>
    <linearGradient id="brass" x1="0" x2="1" y1="0" y2="1">
      <stop offset="0" stop-color="#ffe7a7"/>
      <stop offset="0.35" stop-color="#bc7b2e"/>
      <stop offset="0.68" stop-color="#f5d27a"/>
      <stop offset="1" stop-color="#7d421f"/>
    </linearGradient>
    <filter id="softShadow" x="-30%" y="-30%" width="160%" height="160%">
      <feDropShadow dx="0" dy="28" stdDeviation="32" flood-color="#2c1810" flood-opacity="0.24"/>
    </filter>
    <pattern id="staff" width="210" height="110" patternUnits="userSpaceOnUse">
      <path d="M0 24H210M0 42H210M0 60H210M0 78H210" stroke="#8b4a2a" stroke-opacity=".08" stroke-width="2"/>
    </pattern>
  </defs>
  <rect width="1600" height="900" fill="url(#sand)"/>
  <rect width="1600" height="900" fill="url(#staff)"/>
  <rect width="1600" height="900" fill="url(#glow)"/>

  <g opacity=".16" fill="#2c1810">
    <text x="1328" y="188" font-family="Georgia, serif" font-size="92">𝄞</text>
    <text x="1416" y="474" font-family="Georgia, serif" font-size="78">♪</text>
    <text x="1158" y="735" font-family="Georgia, serif" font-size="96">♫</text>
  </g>

  <g transform="translate(820 148)" filter="url(#softShadow)">
    <ellipse cx="248" cy="520" rx="300" ry="54" fill="#2c1810" opacity=".16"/>
    <path d="M118 257c-64 21-108 79-108 146 0 97 93 176 208 176s208-79 208-176c0-67-45-125-109-146 17 42 28 88 28 137 0 75-57 136-127 136S91 469 91 394c0-49 10-95 27-137Z" fill="url(#brass)"/>
    <path d="M215 43c72 68 119 181 119 309 0 70-53 127-119 127S96 422 96 352C96 224 143 111 215 43Z" fill="url(#brass)"/>
    <path d="M214 90c46 61 73 154 73 258 0 40-31 72-72 72s-72-32-72-72c0-104 27-197 71-258Z" fill="#6d331b" opacity=".2"/>
    <circle cx="216" cy="360" r="54" fill="#f8d989" opacity=".9"/>
    <circle cx="216" cy="360" r="32" fill="#8b4a2a" opacity=".22"/>
    <path d="M216 172v315" stroke="#603019" stroke-opacity=".42" stroke-width="9" stroke-linecap="round"/>
    <path d="M96 320c72-30 165-30 238 0" fill="none" stroke="#fff0bf" stroke-opacity=".62" stroke-width="8" stroke-linecap="round"/>
    <path d="M53 421c105 44 225 44 330 0" fill="none" stroke="#fff0bf" stroke-opacity=".48" stroke-width="7" stroke-linecap="round"/>
  </g>

  <g transform="translate(122 118)">
    <rect x="0" y="0" width="472" height="150" rx="34" fill="#fff8ef" opacity=".72"/>
    <text x="38" y="54" fill="#8b4a2a" font-family="Arial, sans-serif" font-size="20" font-weight="700" letter-spacing="4">BENGALURU EXPERIENCE CENTER</text>
    <text x="38" y="101" fill="#2c1810" font-family="Georgia, serif" font-size="38">See the craft before you gift</text>
  </g>

  <g transform="translate(138 628)" font-family="Arial, sans-serif">
    <g>
      <rect width="244" height="94" rx="47" fill="#fff8ef" opacity=".74"/>
      <text x="42" y="38" fill="#8b4a2a" font-size="15" font-weight="700" letter-spacing="3">GST PRESENCE</text>
      <text x="42" y="66" fill="#2c1810" font-size="22" font-weight="700">KA · TN · MH</text>
    </g>
    <g transform="translate(276 0)">
      <rect width="278" height="94" rx="47" fill="#fff8ef" opacity=".74"/>
      <text x="42" y="38" fill="#8b4a2a" font-size="15" font-weight="700" letter-spacing="3">BULK GIFTING</text>
      <text x="42" y="66" fill="#2c1810" font-size="22" font-weight="700">50 to 400+ units</text>
    </g>
    <g transform="translate(588 0)">
      <rect width="254" height="94" rx="47" fill="#fff8ef" opacity=".74"/>
      <text x="42" y="38" fill="#8b4a2a" font-size="15" font-weight="700" letter-spacing="3">MADE IN INDIA</text>
      <text x="42" y="66" fill="#2c1810" font-size="22" font-weight="700">Moradabad brass</text>
    </g>
  </g>
</svg>
